<?xml version="1.0" encoding="UTF-8"?>
<svg width="512" height="512" viewBox="0 0 512 512" xmlns="http://www.w3.org/2000/svg">
  <desc>PICTOGRAM E02C - ACCOUNTABILITY - Traceable responsibility</desc>
  
  <!-- Chain of linked records - 12px stroke -->
  <rect x="128" y="140" width="80" height="60" fill="none" stroke="#000000" stroke-width="12" rx="8"/>
  <rect x="216" y="206" width="80" height="60" fill="none" stroke="#000000" stroke-width="12" rx="8"/>
  <rect x="304" y="272" width="80" height="60" fill="none" stroke="#000000" stroke-width="12" rx="8"/>
  
  <!-- Immutable connection lines - 8px -->
  <path d="M 168 200 L 256 206" stroke="#000000" stroke-width="8"/>
  <path d="M 256 266 L 344 272" stroke="#000000" stroke-width="8"/>
  
  <!-- Lock 1 - SOLID BLACK FILL with keyhole cutout -->
  <g>
    <circle cx="158" cy="152" r="8" fill="#000000"/>
    <rect x="150" y="155" width="16" height="20" rx="3" fill="#000000"/>
    <!-- Keyhole cutout -->
    <circle cx="158" cy="160" r="3" fill="#FFFFFF"/>
    <rect x="156" y="160" width="4" height="8" fill="#FFFFFF"/>
  </g>
  
  <!-- Lock 2 - SOLID BLACK FILL with keyhole cutout -->
  <g>
    <circle cx="246" cy="218" r="8" fill="#000000"/>
    <rect x="238" y="221" width="16" height="20" rx="3" fill="#000000"/>
    <!-- Keyhole cutout -->
    <circle cx="246" cy="226" r="3" fill="#FFFFFF"/>
    <rect x="244" y="226" width="4" height="8" fill="#FFFFFF"/>
  </g>
  
  <!-- Lock 3 - SOLID BLACK FILL with keyhole cutout -->
  <g>
    <circle cx="334" cy="284" r="8" fill="#000000"/>
    <rect x="326" y="287" width="16" height="20" rx="3" fill="#000000"/>
    <!-- Keyhole cutout -->
    <circle cx="334" cy="292" r="3" fill="#FFFFFF"/>
    <rect x="332" y="292" width="4" height="8" fill="#FFFFFF"/>
  </g>
</svg>
