<?xml version="1.0" encoding="UTF-8"?>
<svg xmlns="http://www.w3.org/2000/svg" width="512" height="512" viewBox="0 0 512 512">
<title>E0C6 UNCERTAINTY — Entropy Measure</title>
<desc>Multiple overlapping probability clouds rendered as hatched/dashed ellipses</desc>

<!-- Three overlapping uncertainty clouds (hatched) -->
<ellipse cx="200" cy="220" rx="60" ry="80" fill="none" stroke="#000000" stroke-width="8"/>
<path d="M140 220 L260 220 M200 140 L200 300 M170 170 L230 270 M230 150 L170 250" stroke="#000000" stroke-width="4"/>

<ellipse cx="280" cy="240" rx="70" ry="90" fill="none" stroke="#000000" stroke-width="8"/>
<path d="M210 240 L350 240 M280 150 L280 330 M240 190 L320 290" stroke="#000000" stroke-width="4"/>

<ellipse cx="240" cy="280" rx="65" ry="85" fill="none" stroke="#000000" stroke-width="8"/>
<path d="M175 280 L305 280 M240 195 L240 365 M200 230 L280 330" stroke="#000000" stroke-width="4"/>

<!-- Big bold question marks inside each cloud -->
<text x="200" y="240" font-family="serif" font-size="64" font-weight="bold" fill="#000000" text-anchor="middle">?</text>
<text x="280" y="260" font-family="serif" font-size="64" font-weight="bold" fill="#000000" text-anchor="middle">?</text>
<text x="240" y="300" font-family="serif" font-size="64" font-weight="bold" fill="#000000" text-anchor="middle">?</text>

<!-- Entropy symbol -->
<text x="256" y="400" font-family="monospace" font-size="56" font-weight="bold" fill="#000000" text-anchor="middle">H</text>
</svg>
