<?xml version="1.0" encoding="UTF-8"?>
<svg xmlns="http://www.w3.org/2000/svg" width="512" height="512" viewBox="0 0 512 512">
<title>E0CA RIGHTS — Inalienable Vectors</title>

<circle cx="256" cy="256" r="44" fill="#000000"/>
<circle cx="256" cy="256" r="70" fill="none" stroke="#000000" stroke-width="8" stroke-dasharray="14,10"/>

<!-- Eight bold arrows radiating outward -->
<path d="M256 256 L256 120" stroke="#000000" stroke-width="14"/><polygon points="256,120 244,146 268,146" fill="#000000"/>
<path d="M256 256 L392 256" stroke="#000000" stroke-width="14"/><polygon points="392,256 366,242 366,270" fill="#000000"/>
<path d="M256 256 L256 392" stroke="#000000" stroke-width="14"/><polygon points="256,392 244,366 268,366" fill="#000000"/>
<path d="M256 256 L120 256" stroke="#000000" stroke-width="14"/><polygon points="120,256 146,242 146,270" fill="#000000"/>

<path d="M256 256 L360 152" stroke="#000000" stroke-width="12"/><polygon points="360,152 338,163 345,130" fill="#000000" transform="rotate(-45 360 152)"/>
<path d="M256 256 L360 360" stroke="#000000" stroke-width="12"/><polygon points="360,360 338,349 345,382" fill="#000000" transform="rotate(45 360 360)"/>
<path d="M256 256 L152 152" stroke="#000000" stroke-width="12"/><polygon points="152,152 174,163 167,130" fill="#000000" transform="rotate(-135 152 152)"/>
<path d="M256 256 L152 360" stroke="#000000" stroke-width="12"/><polygon points="152,360 174,349 167,382" fill="#000000" transform="rotate(135 152 360)"/>
</svg>
