<?xml version="1.0" encoding="UTF-8"?>
<svg width="1400" height="1100" viewBox="0 0 1400 1100" xmlns="http://www.w3.org/2000/svg">
  <title>PICTOGRAM v1.0 - Master Glyph Sheet</title>
  
  <!-- White background -->
  <rect width="1400" height="1100" fill="#ffffff"/>
  
  <!-- Title -->
  <text x="700" y="50" font-family="Arial, sans-serif" font-size="32" font-weight="bold" text-anchor="middle" fill="#000000">
    PICTOGRAM v1.0 - Universal Visual Semantic Protocol
  </text>
  
  <!-- Grid cells with glyphs -->
  
  <!-- Row 1: Flow Category (5 glyphs) -->
  
  <!-- CYCLIC -->
  <g id="cell_0">
    <rect x="0" y="80" width="200" height="240" fill="none" stroke="#ddd" stroke-width="1"/>
    <!-- Glyph: CYCLIC -->
    <g transform="translate(100, 160) scale(0.3)">
      <path d="M 0,-85 A 85 85 0 1 1 -73.67,-42.5" fill="none" stroke="#000000" stroke-width="5" stroke-linecap="round"/>
      <path d="M -73.67,-42.5 L -85,-30 M -73.67,-42.5 L -60,-35" fill="none" stroke="#000000" stroke-width="5" stroke-linecap="round"/>
    </g>
    <text x="100" y="290" font-family="Arial, sans-serif" font-size="14" text-anchor="middle" fill="#000000">CYCLIC</text>
    <text x="100" y="308" font-family="Courier, monospace" font-size="11" text-anchor="middle" fill="#666">U+E000</text>
  </g>
  
  <!-- ERUPTIVE -->
  <g id="cell_1">
    <rect x="200" y="80" width="200" height="240" fill="none" stroke="#ddd" stroke-width="1"/>
    <!-- Glyph: ERUPTIVE -->
    <g transform="translate(300, 220) scale(0.3)">
      <line x1="0" y1="83" x2="0" y2="-83" stroke="#000000" stroke-width="5" stroke-linecap="round"/>
      <!-- Rays -->
      <line x1="0" y1="-83" x2="-69" y2="-123" stroke="#000000" stroke-width="5" stroke-linecap="round"/>
      <line x1="0" y1="-83" x2="-40" y2="-123" stroke="#000000" stroke-width="5" stroke-linecap="round"/>
      <line x1="0" y1="-83" x2="0" y2="-133" stroke="#000000" stroke-width="5" stroke-linecap="round"/>
      <line x1="0" y1="-83" x2="40" y2="-123" stroke="#000000" stroke-width="5" stroke-linecap="round"/>
      <line x1="0" y1="-83" x2="69" y2="-123" stroke="#000000" stroke-width="5" stroke-linecap="round"/>
    </g>
    <text x="300" y="290" font-family="Arial, sans-serif" font-size="14" text-anchor="middle" fill="#000000">ERUPTIVE</text>
    <text x="300" y="308" font-family="Courier, monospace" font-size="11" text-anchor="middle" fill="#666">U+E001</text>
  </g>
  
  <!-- STAGNANT -->
  <g id="cell_2">
    <rect x="400" y="80" width="200" height="240" fill="none" stroke="#ddd" stroke-width="1"/>
    <!-- Glyph: STAGNANT -->
    <g transform="translate(500, 200) scale(0.3)">
      <line x1="-70" y1="0" x2="70" y2="0" stroke="#000000" stroke-width="5" stroke-linecap="round"/>
    </g>
    <text x="500" y="290" font-family="Arial, sans-serif" font-size="14" text-anchor="middle" fill="#000000">STAGNANT</text>
    <text x="500" y="308" font-family="Courier, monospace" font-size="11" text-anchor="middle" fill="#666">U+E002</text>
  </g>
  
  <!-- TURBULENT -->
  <g id="cell_3">
    <rect x="600" y="80" width="200" height="240" fill="none" stroke="#ddd" stroke-width="1"/>
    <!-- Glyph: TURBULENT -->
    <g transform="translate(700, 200) scale(0.3)">
      <path d="M -77,63 L -50,-13 L -30,50 L 0,-40 L 20,30 L 50,-30 L 77,13" 
            fill="none" stroke="#000000" stroke-width="5" stroke-linecap="round" stroke-linejoin="round"/>
    </g>
    <text x="700" y="290" font-family="Arial, sans-serif" font-size="14" text-anchor="middle" fill="#000000">TURBULENT</text>
    <text x="700" y="308" font-family="Courier, monospace" font-size="11" text-anchor="middle" fill="#666">U+E003</text>
  </g>
  
  <!-- DISSIPATIVE -->
  <g id="cell_4">
    <rect x="800" y="80" width="200" height="240" fill="none" stroke="#ddd" stroke-width="1"/>
    <!-- Glyph: DISSIPATIVE -->
    <g transform="translate(900, 160) scale(0.3)">
      <line x1="0" y1="-50" x2="0" y2="77" stroke="#000000" stroke-width="5" stroke-linecap="round"/>
      <path d="M 0,77 L -13,57 M 0,77 L 13,57" fill="none" stroke="#000000" stroke-width="5" stroke-linecap="round"/>
      <!-- Fade lines -->
      <line x1="-20" y1="100" x2="-20" y2="110" stroke="#000000" stroke-width="2.5" stroke-linecap="round" opacity="0.6"/>
      <line x1="0" y1="105" x2="0" y2="115" stroke="#000000" stroke-width="2.5" stroke-linecap="round" opacity="0.6"/>
      <line x1="20" y1="100" x2="20" y2="110" stroke="#000000" stroke-width="2.5" stroke-linecap="round" opacity="0.6"/>
    </g>
    <text x="900" y="290" font-family="Arial, sans-serif" font-size="14" text-anchor="middle" fill="#000000">DISSIPATIVE</text>
    <text x="900" y="308" font-family="Courier, monospace" font-size="11" text-anchor="middle" fill="#666">U+E004</text>
  </g>
  
  <!-- LOW_PRESSURE -->
  <g id="cell_5">
    <rect x="1000" y="80" width="200" height="240" fill="none" stroke="#ddd" stroke-width="1"/>
    <!-- Glyph: LOW_PRESSURE -->
    <g transform="translate(1100, 200) scale(0.3)">
      <circle cx="0" cy="0" r="65" fill="none" stroke="#000000" stroke-width="6"/>
    </g>
    <text x="1100" y="290" font-family="Arial, sans-serif" font-size="13" text-anchor="middle" fill="#000000">LOW PRESSURE</text>
    <text x="1100" y="308" font-family="Courier, monospace" font-size="11" text-anchor="middle" fill="#666">U+E005</text>
  </g>
  
  <!-- RISING_PRESSURE -->
  <g id="cell_6">
    <rect x="1200" y="80" width="200" height="240" fill="none" stroke="#ddd" stroke-width="1"/>
    <!-- Glyph: RISING_PRESSURE -->
    <g transform="translate(1300, 200) scale(0.3)">
      <circle cx="0" cy="0" r="65" fill="none" stroke="#000000" stroke-width="5"/>
      <path d="M -65,0 A 65 65 0 0 0 65,0 L 65,0 L 0,65 Z" fill="#000000"/>
    </g>
    <text x="1300" y="290" font-family="Arial, sans-serif" font-size="12" text-anchor="middle" fill="#000000">RISING PRESSURE</text>
    <text x="1300" y="308" font-family="Courier, monospace" font-size="11" text-anchor="middle" fill="#666">U+E006</text>
  </g>
  
  <!-- Row 2: Pressure (continued) + Texture -->
  
  <!-- HIGH_PRESSURE -->
  <g id="cell_7">
    <rect x="0" y="320" width="200" height="240" fill="none" stroke="#ddd" stroke-width="1"/>
    <!-- Glyph: HIGH_PRESSURE -->
    <g transform="translate(100, 440) scale(0.3)">
      <circle cx="0" cy="0" r="65" fill="#000000" stroke="#000000" stroke-width="6"/>
    </g>
    <text x="100" y="530" font-family="Arial, sans-serif" font-size="13" text-anchor="middle" fill="#000000">HIGH PRESSURE</text>
    <text x="100" y="548" font-family="Courier, monospace" font-size="11" text-anchor="middle" fill="#666">U+E007</text>
  </g>
  
  <!-- COLLAPSING_PRESSURE -->
  <g id="cell_8">
    <rect x="200" y="320" width="200" height="240" fill="none" stroke="#ddd" stroke-width="1"/>
    <!-- Glyph: COLLAPSING_PRESSURE -->
    <g transform="translate(300, 440) scale(0.3)">
      <circle cx="0" cy="0" r="80" fill="none" stroke="#000000" stroke-width="5"/>
      <circle cx="0" cy="0" r="53" fill="none" stroke="#000000" stroke-width="5"/>
      <circle cx="0" cy="0" r="27" fill="none" stroke="#000000" stroke-width="5"/>
      <circle cx="0" cy="0" r="7" fill="#000000"/>
    </g>
    <text x="300" y="530" font-family="Arial, sans-serif" font-size="11" text-anchor="middle" fill="#000000">COLLAPSING PRES.</text>
    <text x="300" y="548" font-family="Courier, monospace" font-size="11" text-anchor="middle" fill="#666">U+E008</text>
  </g>
  
  <!-- CRYSTALLINE -->
  <g id="cell_9">
    <rect x="400" y="320" width="200" height="240" fill="none" stroke="#ddd" stroke-width="1"/>
    <!-- Glyph: CRYSTALLINE -->
    <g transform="translate(500, 440) scale(0.3)">
      <path d="M 0,-77 L 77,0 L 0,77 L -77,0 Z" fill="none" stroke="#000000" stroke-width="5" stroke-linejoin="miter"/>
    </g>
    <text x="500" y="530" font-family="Arial, sans-serif" font-size="14" text-anchor="middle" fill="#000000">CRYSTALLINE</text>
    <text x="500" y="548" font-family="Courier, monospace" font-size="11" text-anchor="middle" fill="#666">U+E009</text>
  </g>
  
  <!-- ORGANIC -->
  <g id="cell_10">
    <rect x="600" y="320" width="200" height="240" fill="none" stroke="#ddd" stroke-width="1"/>
    <!-- Glyph: ORGANIC -->
    <g transform="translate(700, 440) scale(0.3)">
      <path d="M -77,0 C -50,-30 -37,-17 -17,7 C 3,30 10,-17 30,0 C 50,17 57,-10 77,0" 
            fill="none" stroke="#000000" stroke-width="5" stroke-linecap="round" stroke-linejoin="round"/>
    </g>
    <text x="700" y="530" font-family="Arial, sans-serif" font-size="14" text-anchor="middle" fill="#000000">ORGANIC</text>
    <text x="700" y="548" font-family="Courier, monospace" font-size="11" text-anchor="middle" fill="#666">U+E00A</text>
  </g>
  
  <!-- MINIMAL -->
  <g id="cell_11">
    <rect x="800" y="320" width="200" height="240" fill="none" stroke="#ddd" stroke-width="1"/>
    <!-- Glyph: MINIMAL -->
    <g transform="translate(900, 440) scale(0.3)">
      <circle cx="0" cy="0" r="10" fill="#000000"/>
    </g>
    <text x="900" y="530" font-family="Arial, sans-serif" font-size="14" text-anchor="middle" fill="#000000">MINIMAL</text>
    <text x="900" y="548" font-family="Courier, monospace" font-size="11" text-anchor="middle" fill="#666">U+E00B</text>
  </g>
  
  <!-- DIFFUSE -->
  <g id="cell_12">
    <rect x="1000" y="320" width="200" height="240" fill="none" stroke="#ddd" stroke-width="1"/>
    <!-- Glyph: DIFFUSE -->
    <g transform="translate(1100, 440) scale(0.3)">
      <circle cx="-30" cy="-40" r="7" fill="#000000"/>
      <circle cx="20" cy="-50" r="7" fill="#000000"/>
      <circle cx="50" cy="-15" r="7" fill="#000000"/>
      <circle cx="-10" cy="0" r="7" fill="#000000"/>
      <circle cx="40" cy="10" r="7" fill="#000000"/>
      <circle cx="-45" cy="20" r="7" fill="#000000"/>
      <circle cx="0" cy="45" r="7" fill="#000000"/>
      <circle cx="55" cy="35" r="7" fill="#000000"/>
      <circle cx="-25" cy="55" r="7" fill="#000000"/>
    </g>
    <text x="1100" y="530" font-family="Arial, sans-serif" font-size="14" text-anchor="middle" fill="#000000">DIFFUSE</text>
    <text x="1100" y="548" font-family="Courier, monospace" font-size="11" text-anchor="middle" fill="#666">U+E00C</text>
  </g>
  
  <!-- PEAK -->
  <g id="cell_13">
    <rect x="1200" y="320" width="200" height="240" fill="none" stroke="#ddd" stroke-width="1"/>
    <!-- Glyph: PEAK -->
    <g transform="translate(1300, 440) scale(0.3)">
      <path d="M 0,-64 L 51,64 L -51,64 Z" fill="none" stroke="#000000" stroke-width="5" stroke-linejoin="miter"/>
    </g>
    <text x="1300" y="530" font-family="Arial, sans-serif" font-size="14" text-anchor="middle" fill="#000000">PEAK</text>
    <text x="1300" y="548" font-family="Courier, monospace" font-size="11" text-anchor="middle" fill="#666">U+E00D</text>
  </g>
  
  <!-- Row 3: Structure + Operators -->
  
  <!-- VALLEY -->
  <g id="cell_14">
    <rect x="0" y="560" width="200" height="240" fill="none" stroke="#ddd" stroke-width="1"/>
    <!-- Glyph: VALLEY -->
    <g transform="translate(100, 680) scale(0.3)">
      <path d="M -51,-64 L 51,-64 L 0,64 Z" fill="none" stroke="#000000" stroke-width="5" stroke-linejoin="miter"/>
    </g>
    <text x="100" y="770" font-family="Arial, sans-serif" font-size="14" text-anchor="middle" fill="#000000">VALLEY</text>
    <text x="100" y="788" font-family="Courier, monospace" font-size="11" text-anchor="middle" fill="#666">U+E00E</text>
  </g>
  
  <!-- PLATEAU -->
  <g id="cell_15">
    <rect x="200" y="560" width="200" height="240" fill="none" stroke="#ddd" stroke-width="1"/>
    <!-- Glyph: PLATEAU -->
    <g transform="translate(300, 650) scale(0.3)">
      <line x1="-77" y1="0" x2="77" y2="0" stroke="#000000" stroke-width="5" stroke-linecap="butt"/>
    </g>
    <text x="300" y="770" font-family="Arial, sans-serif" font-size="14" text-anchor="middle" fill="#000000">PLATEAU</text>
    <text x="300" y="788" font-family="Courier, monospace" font-size="11" text-anchor="middle" fill="#666">U+E00F</text>
  </g>
  
  <!-- ASCENT -->
  <g id="cell_16">
    <rect x="400" y="560" width="200" height="240" fill="none" stroke="#ddd" stroke-width="1"/>
    <!-- Glyph: ASCENT -->
    <g transform="translate(500, 680) scale(0.3)">
      <line x1="-77" y1="64" x2="77" y2="-64" stroke="#000000" stroke-width="5" stroke-linecap="round"/>
    </g>
    <text x="500" y="770" font-family="Arial, sans-serif" font-size="14" text-anchor="middle" fill="#000000">ASCENT</text>
    <text x="500" y="788" font-family="Courier, monospace" font-size="11" text-anchor="middle" fill="#666">U+E010</text>
  </g>
  
  <!-- SUBDUCTION -->
  <g id="cell_17">
    <rect x="600" y="560" width="200" height="240" fill="none" stroke="#ddd" stroke-width="1"/>
    <!-- Glyph: SUBDUCTION -->
    <g transform="translate(700, 680) scale(0.3)">
      <path d="M -37,-57 C -20,-57 3,-47 3,0 C 3,47 -20,57 -37,57" 
            fill="none" stroke="#000000" stroke-width="5" stroke-linecap="round"/>
    </g>
    <text x="700" y="770" font-family="Arial, sans-serif" font-size="14" text-anchor="middle" fill="#000000">SUBDUCTION</text>
    <text x="700" y="788" font-family="Courier, monospace" font-size="11" text-anchor="middle" fill="#666">U+E011</text>
  </g>
  
  <!-- CONVERGENCE -->
  <g id="cell_18">
    <rect x="800" y="560" width="200" height="240" fill="none" stroke="#ddd" stroke-width="1"/>
    <!-- Glyph: CONVERGENCE -->
    <g transform="translate(900, 680) scale(0.3)">
      <!-- Left turnstile -->
      <line x1="-50" y1="-37" x2="-50" y2="37" stroke="#000000" stroke-width="5" stroke-linecap="round"/>
      <line x1="-50" y1="0" x2="-20" y2="0" stroke="#000000" stroke-width="5" stroke-linecap="round"/>
      <!-- Right turnstile -->
      <line x1="50" y1="-37" x2="50" y2="37" stroke="#000000" stroke-width="5" stroke-linecap="round"/>
      <line x1="50" y1="0" x2="20" y2="0" stroke="#000000" stroke-width="5" stroke-linecap="round"/>
    </g>
    <text x="900" y="770" font-family="Arial, sans-serif" font-size="13" text-anchor="middle" fill="#000000">CONVERGENCE</text>
    <text x="900" y="788" font-family="Courier, monospace" font-size="11" text-anchor="middle" fill="#666">U+E012</text>
  </g>
  
  <!-- OSCILLATION -->
  <g id="cell_19">
    <rect x="1000" y="560" width="200" height="240" fill="none" stroke="#ddd" stroke-width="1"/>
    <!-- Glyph: OSCILLATION -->
    <g transform="translate(1100, 680) scale(0.3)">
      <line x1="-77" y1="0" x2="77" y2="0" stroke="#000000" stroke-width="5" stroke-linecap="round"/>
      <path d="M -77,0 L -63,-13 M -77,0 L -63,13" fill="none" stroke="#000000" stroke-width="5" stroke-linecap="round"/>
      <path d="M 77,0 L 63,-13 M 77,0 L 63,13" fill="none" stroke="#000000" stroke-width="5" stroke-linecap="round"/>
    </g>
    <text x="1100" y="770" font-family="Arial, sans-serif" font-size="14" text-anchor="middle" fill="#000000">OSCILLATION</text>
    <text x="1100" y="788" font-family="Courier, monospace" font-size="11" text-anchor="middle" fill="#666">U+E013</text>
  </g>
  
  <!-- GRADIENT -->
  <g id="cell_20">
    <rect x="1200" y="560" width="200" height="240" fill="none" stroke="#ddd" stroke-width="1"/>
    <!-- Glyph: GRADIENT -->
    <g transform="translate(1300, 680) scale(0.3)">
      <line x1="-77" y1="0" x2="77" y2="0" stroke="#000000" stroke-width="5" stroke-linecap="round"/>
      <path d="M 77,0 L 63,-13 M 77,0 L 63,13" fill="none" stroke="#000000" stroke-width="5" stroke-linecap="round"/>
    </g>
    <text x="1300" y="770" font-family="Arial, sans-serif" font-size="14" text-anchor="middle" fill="#000000">GRADIENT</text>
    <text x="1300" y="788" font-family="Courier, monospace" font-size="11" text-anchor="middle" fill="#666">U+E014</text>
  </g>
  
  <!-- Row 4: Operators (continued) + Logic -->
  
  <!-- FUSION -->
  <g id="cell_21">
    <rect x="0" y="800" width="200" height="240" fill="none" stroke="#ddd" stroke-width="1"/>
    <!-- Glyph: FUSION -->
    <g transform="translate(100, 920) scale(0.3)">
      <circle cx="-30" cy="0" r="50" fill="none" stroke="#000000" stroke-width="5"/>
      <circle cx="30" cy="0" r="50" fill="none" stroke="#000000" stroke-width="5"/>
    </g>
    <text x="100" y="1010" font-family="Arial, sans-serif" font-size="14" text-anchor="middle" fill="#000000">FUSION</text>
    <text x="100" y="1028" font-family="Courier, monospace" font-size="11" text-anchor="middle" fill="#666">U+E015</text>
  </g>
  
  <!-- EMERGENCE -->
  <g id="cell_22">
    <rect x="200" y="800" width="200" height="240" fill="none" stroke="#ddd" stroke-width="1"/>
    <!-- Glyph: EMERGENCE -->
    <g transform="translate(300, 920) scale(0.3)">
      <circle cx="0" cy="0" r="60" fill="none" stroke="#000000" stroke-width="5"/>
      <circle cx="0" cy="0" r="15" fill="#000000"/>
    </g>
    <text x="300" y="1010" font-family="Arial, sans-serif" font-size="14" text-anchor="middle" fill="#000000">EMERGENCE</text>
    <text x="300" y="1028" font-family="Courier, monospace" font-size="11" text-anchor="middle" fill="#666">U+E016</text>
  </g>
  
  <!-- CONTAINMENT -->
  <g id="cell_23">
    <rect x="400" y="800" width="200" height="240" fill="none" stroke="#ddd" stroke-width="1"/>
    <!-- Glyph: CONTAINMENT -->
    <g transform="translate(500, 920) scale(0.3)">
      <circle cx="0" cy="0" r="73" fill="none" stroke="#000000" stroke-width="6"/>
      <circle cx="0" cy="0" r="37" fill="none" stroke="#000000" stroke-width="6"/>
    </g>
    <text x="500" y="1010" font-family="Arial, sans-serif" font-size="13" text-anchor="middle" fill="#000000">CONTAINMENT</text>
    <text x="500" y="1028" font-family="Courier, monospace" font-size="11" text-anchor="middle" fill="#666">U+E017</text>
  </g>
  
  <!-- VOID -->
  <g id="cell_24">
    <rect x="600" y="800" width="200" height="240" fill="none" stroke="#ddd" stroke-width="1"/>
    <!-- Glyph: VOID -->
    <g transform="translate(700, 920) scale(0.3)">
      <circle cx="0" cy="0" r="60" fill="none" stroke="#000000" stroke-width="6"/>
      <line x1="42" y1="-42" x2="-42" y2="42" stroke="#000000" stroke-width="6" stroke-linecap="round"/>
    </g>
    <text x="700" y="1010" font-family="Arial, sans-serif" font-size="14" text-anchor="middle" fill="#000000">VOID</text>
    <text x="700" y="1028" font-family="Courier, monospace" font-size="11" text-anchor="middle" fill="#666">U+E018</text>
  </g>
  
  <!-- CONDITIONAL -->
  <g id="cell_25">
    <rect x="800" y="800" width="200" height="240" fill="none" stroke="#ddd" stroke-width="1"/>
    <!-- Glyph: CONDITIONAL -->
    <g transform="translate(900, 920) scale(0.3)">
      <path d="M 0,-77 L -30,7 L 20,17 L -13,77" 
            fill="none" stroke="#000000" stroke-width="6" stroke-linecap="round" stroke-linejoin="miter"/>
    </g>
    <text x="900" y="1010" font-family="Arial, sans-serif" font-size="13" text-anchor="middle" fill="#000000">CONDITIONAL</text>
    <text x="900" y="1028" font-family="Courier, monospace" font-size="11" text-anchor="middle" fill="#666">U+E019</text>
  </g>
  
  <!-- NEGATION -->
  <g id="cell_26">
    <rect x="1000" y="800" width="200" height="240" fill="none" stroke="#ddd" stroke-width="1"/>
    <!-- Glyph: NEGATION -->
    <g transform="translate(1100, 920) scale(0.3)">
      <path d="M 64,-30 L -64,-30 L -64,33" 
            fill="none" stroke="#000000" stroke-width="6" stroke-linecap="butt" stroke-linejoin="miter"/>
    </g>
    <text x="1100" y="1010" font-family="Arial, sans-serif" font-size="14" text-anchor="middle" fill="#000000">NEGATION</text>
    <text x="1100" y="1028" font-family="Courier, monospace" font-size="11" text-anchor="middle" fill="#666">U+E01A</text>
  </g>
  
  <!-- EQUIVALENCE -->
  <g id="cell_27">
    <rect x="1200" y="800" width="200" height="240" fill="none" stroke="#ddd" stroke-width="1"/>
    <!-- Glyph: EQUIVALENCE -->
    <g transform="translate(1300, 920) scale(0.3)">
      <line x1="-64" y1="-30" x2="64" y2="-30" stroke="#000000" stroke-width="6" stroke-linecap="butt"/>
      <line x1="-64" y1="0" x2="64" y2="0" stroke="#000000" stroke-width="6" stroke-linecap="butt"/>
      <line x1="-64" y1="30" x2="64" y2="30" stroke="#000000" stroke-width="6" stroke-linecap="butt"/>
    </g>
    <text x="1300" y="1010" font-family="Arial, sans-serif" font-size="13" text-anchor="middle" fill="#000000">EQUIVALENCE</text>
    <text x="1300" y="1028" font-family="Courier, monospace" font-size="11" text-anchor="middle" fill="#666">U+E01B</text>
  </g>
  
  <!-- Footer -->
  <text x="700" y="1070" font-family="Courier, monospace" font-size="12" text-anchor="middle" fill="#888">
    28 Canonical Glyphs | PSH-256 Cryptographic Hashing | github.com/PaniclandUSA/pictogram
  </text>
  
</svg>
