<?xml version="1.0" encoding="UTF-8"?>
<svg width="512" height="512" viewBox="0 0 512 512" xmlns="http://www.w3.org/2000/svg">
  <desc>PICTOGRAM E02B - RESTORATION - Repair after harm</desc>
  <!-- Broken circle being mended -->
  <path d="M 256 76 A 180 180 0 0 1 436 256" fill="none" stroke="#000000" stroke-width="10" stroke-dasharray="20,10"/>
  <path d="M 436 256 A 180 180 0 0 1 256 436" fill="none" stroke="#000000" stroke-width="10"/>
  <path d="M 256 436 A 180 180 0 0 1 76 256" fill="none" stroke="#000000" stroke-width="10"/>
  <path d="M 76 256 A 180 180 0 0 1 256 76" fill="none" stroke="#000000" stroke-width="10" stroke-dasharray="20,10"/>
  <!-- Repair threads weaving across the breaks -->
  <path d="M 256 76 L 280 100 L 256 124" fill="none" stroke="#8B0000" stroke-width="6" stroke-linecap="round"/>
  <path d="M 256 436 L 232 412 L 256 388" fill="none" stroke="#8B0000" stroke-width="6" stroke-linecap="round"/>
  <!-- Spiral indicating restoration process -->
  <path d="M 256 256 Q 286 256 286 286 Q 286 316 256 316 Q 226 316 226 286 Q 226 256 256 256" 
        fill="none" stroke="#8B0000" stroke-width="4"/>
</svg>
