<?xml version="1.0" encoding="UTF-8"?>
<svg width="512" height="512" viewBox="0 0 512 512" xmlns="http://www.w3.org/2000/svg">
  <desc>PICTOGRAM E031 - CARE - Active protection and nurturing</desc>
  <!-- Heart shape representing care -->
  <path d="M 256 380 Q 156 300 156 220 Q 156 170 190 150 Q 220 130 256 160 Q 292 130 322 150 Q 356 170 356 220 Q 356 300 256 380 Z" 
        fill="none" stroke="#8B0000" stroke-width="12" stroke-linejoin="round"/>
  <!-- Protective hands embracing -->
  <path d="M 136 240 Q 120 260 120 290 L 140 310" fill="none" stroke="#000000" stroke-width="8" stroke-linecap="round"/>
  <path d="M 376 240 Q 392 260 392 290 L 372 310" fill="none" stroke="#000000" stroke-width="8" stroke-linecap="round"/>
  <!-- Nurturing growth symbol inside heart -->
  <path d="M 256 240 L 256 280 M 256 240 Q 236 230 236 210 M 256 240 Q 276 230 276 210" 
        fill="none" stroke="#00753A" stroke-width="6" stroke-linecap="round"/>
  <circle cx="236" cy="205" r="6" fill="#00753A"/>
  <circle cx="276" cy="205" r="6" fill="#00753A"/>
</svg>
