<svg xmlns="http://www.w3.org/2000/svg" viewBox="0 0 512 512">
  <desc>GRID - Grid formation, matrix arrangement, area coverage</desc>
  
  <!-- 4x4 grid of agents -->
  <circle cx="140" cy="140" r="26" fill="#000000"/>
  <circle cx="220" cy="140" r="26" fill="#000000"/>
  <circle cx="292" cy="140" r="26" fill="#000000"/>
  <circle cx="372" cy="140" r="26" fill="#000000"/>
  
  <circle cx="140" cy="212" r="26" fill="#000000"/>
  <circle cx="220" cy="212" r="26" fill="#000000"/>
  <circle cx="292" cy="212" r="26" fill="#000000"/>
  <circle cx="372" cy="212" r="26" fill="#000000"/>
  
  <circle cx="140" cy="300" r="26" fill="#000000"/>
  <circle cx="220" cy="300" r="26" fill="#000000"/>
  <circle cx="292" cy="300" r="26" fill="#000000"/>
  <circle cx="372" cy="300" r="26" fill="#000000"/>
  
  <circle cx="140" cy="372" r="26" fill="#000000"/>
  <circle cx="220" cy="372" r="26" fill="#000000"/>
  <circle cx="292" cy="372" r="26" fill="#000000"/>
  <circle cx="372" cy="372" r="26" fill="#000000"/>
  
  <!-- Grid lines (faint) -->
  <line x1="140" y1="100" x2="140" y2="412" stroke="#000000" stroke-width="2" opacity="0.2"/>
  <line x1="220" y1="100" x2="220" y2="412" stroke="#000000" stroke-width="2" opacity="0.2"/>
  <line x1="292" y1="100" x2="292" y2="412" stroke="#000000" stroke-width="2" opacity="0.2"/>
  <line x1="372" y1="100" x2="372" y2="412" stroke="#000000" stroke-width="2" opacity="0.2"/>
  
  <line x1="100" y1="140" x2="412" y2="140" stroke="#000000" stroke-width="2" opacity="0.2"/>
  <line x1="100" y1="212" x2="412" y2="212" stroke="#000000" stroke-width="2" opacity="0.2"/>
  <line x1="100" y1="300" x2="412" y2="300" stroke="#000000" stroke-width="2" opacity="0.2"/>
  <line x1="100" y1="372" x2="412" y2="372" stroke="#000000" stroke-width="2" opacity="0.2"/>
</svg>
