<?xml version="1.0" encoding="UTF-8"?>
<svg xmlns="http://www.w3.org/2000/svg" width="512" height="512" viewBox="0 0 512 512">
  <title>E0DF TRANSCENDENCE — The Map Is Not The Territory</title>
  <desc>Map floating above terrain. Ultimate meta-awareness - recognition that models are not reality.</desc>
  
  <!-- Territory (reality - complex terrain below) -->
  <path d="M 80 350 
           Q 120 330 160 340 
           Q 200 350 240 330 
           Q 280 310 320 335 
           Q 360 360 400 340 
           L 432 350" 
        fill="none" 
        stroke="#000000" 
        stroke-width="12"/>
  
  <!-- Terrain features (actual reality) -->
  <circle cx="140" cy="370" r="8" fill="#000000"/>
  <circle cx="220" cy="360" r="8" fill="#000000"/>
  <circle cx="300" cy="365" r="8" fill="#000000"/>
  <circle cx="380" cy="370" r="8" fill="#000000"/>
  
  <!-- Ground -->
  <line x1="60" y1="390" x2="452" y2="390" 
        stroke="#000000" 
        stroke-width="8"/>
  
  <!-- Map (model/representation - simplified above) -->
  <rect x="160" y="180" width="192" height="120" rx="8" 
        fill="none" 
        stroke="#008B8B" 
        stroke-width="12"/>
  
  <!-- Simplified map representation -->
  <line x1="180" y1="220" x2="332" y2="220" 
        stroke="#008B8B" 
        stroke-width="6"/>
  <line x1="180" y1="250" x2="332" y2="250" 
        stroke="#008B8B" 
        stroke-width="6"/>
  <circle cx="200" cy="235" r="6" fill="#008B8B"/>
  <circle cx="256" cy="235" r="6" fill="#008B8B"/>
  <circle cx="312" cy="235" r="6" fill="#008B8B"/>
  
  <!-- Gap between map and territory (fundamental separation) -->
  <path d="M 220 300 L 220 340" 
        stroke="#008B8B" 
        stroke-width="6" 
        stroke-dasharray="12,12" 
        opacity="0.4"/>
  <path d="M 292" y1="300" x2="292" y2="340" 
        stroke="#008B8B" 
        stroke-width="6" 
        stroke-dasharray="12,12" 
        opacity="0.4"/>
  
  <!-- "≠" symbol (not equal) -->
  <line x1="200" y1="140" x2="312" y2="140" 
        stroke="#008B8B" 
        stroke-width="12" 
        stroke-linecap="round"/>
  <line x1="200" y1="170" x2="312" y2="170" 
        stroke="#008B8B" 
        stroke-width="12" 
        stroke-linecap="round"/>
  <line x1="230" y1="120" x2="282" y2="190" 
        stroke="#8B0000" 
        stroke-width="10" 
        stroke-linecap="round"/>
  
  <!-- Meta-awareness indicator (consciousness of the gap) -->
  <circle cx="256" cy="250" r="100" 
          fill="none" 
          stroke="#008B8B" 
          stroke-width="4" 
          stroke-dasharray="16,16" 
          opacity="0.2"/>
  
  <!-- Infinity symbol (infinite gap between model and reality) -->
  <path d="M 200 430 
           Q 220 410 240 430 
           Q 260 450 272 430 
           Q 284 410 304 430" 
        fill="none" 
        stroke="#008B8B" 
        stroke-width="10" 
        stroke-linecap="round"/>
  
  <metadata>
    <rdf:RDF xmlns:rdf="http://www.w3.org/1999/02/22-rdf-syntax-ns#">
      <rdf:Description>
        <dc:title xmlns:dc="http://purl.org/dc/elements/1.1/">TRANSCENDENCE (E0DF)</dc:title>
        <dc:description xmlns:dc="http://purl.org/dc/elements/1.1/">Map is not territory. Ultimate meta-glyph showing recognition that models are not reality.</dc:description>
        <dc:date xmlns:dc="http://purl.org/dc/elements/1.1/">2025-11-27</dc:date>
      </rdf:Description>
    </rdf:RDF>
  </metadata>
</svg>
