<?xml version="1.0" encoding="UTF-8"?>
<svg xmlns="http://www.w3.org/2000/svg" width="512" height="512" viewBox="0 0 512 512">
  <title>E0E1 CONTENTMENT — Peaceful Satisfaction</title>
  <desc>Gentle waves at rest. Low-tension equilibrium - satisfied with present state.</desc>
  
  <!-- Peaceful water surface (contentment) -->
  <path d="M 80 256 
           Q 140 240 200 256 
           Q 260 272 312 256 
           Q 364 240 432 256" 
        fill="none" 
        stroke="#FF69B4" 
        stroke-width="14" 
        stroke-linecap="round"/>
  
  <!-- Subtle reflection (deeper peace) -->
  <path d="M 80 280 
           Q 140 296 200 280 
           Q 260 264 312 280 
           Q 364 296 432 280" 
        fill="none" 
        stroke="#FF69B4" 
        stroke-width="8" 
        opacity="0.3"/>
  
  <!-- Settled particles (low entropy) -->
  <circle cx="150" cy="320" r="6" fill="#FF69B4" opacity="0.5"/>
  <circle cx="220" cy="330" r="6" fill="#FF69B4" opacity="0.5"/>
  <circle cx="280" cy="325" r="6" fill="#FF69B4" opacity="0.5"/>
  <circle cx="350" cy="335" r="6" fill="#FF69B4" opacity="0.5"/>
  
  <!-- Ground line (stable foundation) -->
  <line x1="60" y1="360" x2="452" y2="360" 
        stroke="#FF69B4" 
        stroke-width="10" 
        opacity="0.4"/>
  
  <!-- Comfortable embrace (satisfaction) -->
  <path d="M 200 140 
           Q 180 180 200 220" 
        fill="none" 
        stroke="#FF69B4" 
        stroke-width="10" 
        stroke-linecap="round"/>
  <path d="M 312 140 
           Q 332 180 312 220" 
        fill="none" 
        stroke="#FF69B4" 
        stroke-width="10" 
        stroke-linecap="round"/>
  
  <!-- Heart at center (peaceful satisfaction) -->
  <path d="M 256 160 L 270 175 L 256 200 L 242 175 Z" 
        fill="#FF69B4" 
        opacity="0.6"/>
  <circle cx="249" cy="167" r="7" fill="#FF69B4" opacity="0.6"/>
  <circle cx="263" cy="167" r="7" fill="#FF69B4" opacity="0.6"/>
  
  <!-- Equilibrium symbol -->
  <line x1="220" y1="420" x2="292" y2="420" 
        stroke="#FF69B4" 
        stroke-width="10" 
        stroke-linecap="round"/>
  
  <metadata>
    <rdf:RDF xmlns:rdf="http://www.w3.org/1999/02/22-rdf-syntax-ns#">
      <rdf:Description>
        <dc:title xmlns:dc="http://purl.org/dc/elements/1.1/">CONTENTMENT (E0E1)</dc:title>
        <dc:description xmlns:dc="http://purl.org/dc/elements/1.1/">Peaceful satisfaction. Gentle waves at rest showing low-tension equilibrium state.</dc:description>
        <dc:date xmlns:dc="http://purl.org/dc/elements/1.1/">2025-11-27</dc:date>
      </rdf:Description>
    </rdf:RDF>
  </metadata>
</svg>
