<?xml version="1.0" encoding="UTF-8"?>
<svg xmlns="http://www.w3.org/2000/svg" width="512" height="512" viewBox="0 0 512 512">
  <title>E0E5 GRACE — Unearned Gift Freely Given</title>
  <desc>Flowing gift with light touch. Compassionate action beyond obligation - elegance under pressure.</desc>
  
  <!-- Giver (offering grace) -->
  <circle cx="160" cy="200" r="40" 
          fill="none" 
          stroke="#FF69B4" 
          stroke-width="12"/>
  
  <!-- Receiver (receiving grace) -->
  <circle cx="352" cy="280" r="40" 
          fill="none" 
          stroke="#FF69B4" 
          stroke-width="12"/>
  
  <!-- Flowing graceful path (elegant giving) -->
  <path d="M 200 200 
           Q 240 180 280 220 
           Q 300 240 312 260" 
        fill="none" 
        stroke="#FF69B4" 
        stroke-width="12" 
        stroke-linecap="round"/>
  
  <!-- Gift (freely given) -->
  <rect x="260" y="200" width="50" height="50" rx="8" 
        fill="none" 
        stroke="#FF69B4" 
        stroke-width="10"/>
  
  <!-- Ribbon bow (beauty of the gift) -->
  <path d="M 260 225 L 240 215 L 260 205" 
        fill="none" 
        stroke="#FF69B4" 
        stroke-width="8" 
        stroke-linecap="round" 
        stroke-linejoin="round"/>
  <path d="M 310 225 L 330 215 L 310 205" 
        fill="none" 
        stroke="#FF69B4" 
        stroke-width="8" 
        stroke-linecap="round" 
        stroke-linejoin="round"/>
  
  <!-- Light touch (no obligation) -->
  <circle cx="285" cy="225" r="8" fill="#FF69B4" opacity="0.4"/>
  <circle cx="285" cy="225" r="16" 
          fill="none" 
          stroke="#FF69B4" 
          stroke-width="2" 
          opacity="0.3"/>
  <circle cx="285" cy="225" r="24" 
          fill="none" 
          stroke="#FF69B4" 
          stroke-width="2" 
          opacity="0.2"/>
  
  <!-- Graceful dance notation (elegance under pressure) -->
  <path d="M 140 340 
           Q 180 320 220 340 
           Q 260 360 300 340 
           Q 340 320 380 340" 
        fill="none" 
        stroke="#FF69B4" 
        stroke-width="8" 
        stroke-linecap="round" 
        opacity="0.5"/>
  
  <!-- Beyond obligation indicator (∞ giving) -->
  <path d="M 200 400 
           Q 220 380 240 400 
           Q 260 420 272 400 
           Q 284 380 304 400" 
        fill="none" 
        stroke="#FF69B4" 
        stroke-width="10" 
        stroke-linecap="round"/>
  
  <!-- Flourish marks (elegant touch) -->
  <path d="M 360 340 Q 380 330 390 340" 
        fill="none" 
        stroke="#FF69B4" 
        stroke-width="6" 
        stroke-linecap="round"/>
  <path d="M 370 360 Q 390 350 400 360" 
        fill="none" 
        stroke="#FF69B4" 
        stroke-width="6" 
        stroke-linecap="round"/>
  
  <!-- Heart element (compassion) -->
  <path d="M 190 430 L 200 440 L 190 455 L 180 440 Z" 
        fill="#FF69B4" 
        opacity="0.5"/>
  <circle cx="186" cy="436" r="5" fill="#FF69B4" opacity="0.5"/>
  <circle cx="194" cy="436" r="5" fill="#FF69B4" opacity="0.5"/>
  
  <metadata>
    <rdf:RDF xmlns:rdf="http://www.w3.org/1999/02/22-rdf-syntax-ns#">
      <rdf:Description>
        <dc:title xmlns:dc="http://purl.org/dc/elements/1.1/">GRACE (E0E5)</dc:title>
        <dc:description xmlns:dc="http://purl.org/dc/elements/1.1/">Unearned gift freely given. Flowing path with elegant gift showing compassion beyond obligation.</dc:description>
        <dc:date xmlns:dc="http://purl.org/dc/elements/1.1/">2025-11-27</dc:date>
      </rdf:Description>
    </rdf:RDF>
  </metadata>
</svg>
