<?xml version="1.0" encoding="UTF-8"?>
<svg xmlns="http://www.w3.org/2000/svg" width="512" height="512" viewBox="0 0 512 512">
  <title>E0FB BEAUTY — High-Pattern Resonance</title>
  <desc>Flowing bloom with aesthetic pause. Pattern that stops you with its elegance.</desc>
  
  <!-- Central bloom (beauty core) -->
  <circle cx="256" cy="256" r="50" 
          fill="#FFD700" 
          opacity="0.4"/>
  
  <!-- Flowing petals (organic grace) -->
  <path d="M 256 206 
           Q 230 180 220 160 
           Q 230 140 256 150" 
        fill="#FFB6C1" 
        opacity="0.6" 
        stroke="#FF69B4" 
        stroke-width="8"/>
  
  <path d="M 306 256 
           Q 332 230 352 220 
           Q 372 230 362 256" 
        fill="#FFB6C1" 
        opacity="0.6" 
        stroke="#FF69B4" 
        stroke-width="8"/>
  
  <path d="M 256 306 
           Q 230 332 220 352 
           Q 230 372 256 362" 
        fill="#FFB6C1" 
        opacity="0.6" 
        stroke="#FF69B4" 
        stroke-width="8"/>
  
  <path d="M 206 256 
           Q 180 230 160 220 
           Q 140 230 150 256" 
        fill="#FFB6C1" 
        opacity="0.6" 
        stroke="#FF69B4" 
        stroke-width="8"/>
  
  <!-- Golden ratio spiral (mathematical beauty) -->
  <path d="M 256 256 
           Q 280 240 300 256 
           Q 316 280 300 300 
           Q 272 316 256 300" 
        fill="none" 
        stroke="#FFD700" 
        stroke-width="6" 
        opacity="0.5"/>
  
  <!-- Aesthetic pause (moment of recognition) -->
  <rect x="230" y="380" width="18" height="50" rx="4" 
        fill="#FF69B4" 
        opacity="0.6"/>
  <rect x="264" y="380" width="18" height="50" rx="4" 
        fill="#FF69B4" 
        opacity="0.6"/>
  
  <!-- Resonance rings (spreading beauty) -->
  <circle cx="256" cy="256" r="90" 
          fill="none" 
          stroke="#FFD700" 
          stroke-width="4" 
          opacity="0.3"/>
  <circle cx="256" cy="256" r="120" 
          fill="none" 
          stroke="#FFD700" 
          stroke-width="3" 
          opacity="0.2"/>
  
  <!-- Flow indicator -->
  <path d="M 180 140 
           Q 200 120 220 140" 
        fill="none" 
        stroke="#FF69B4" 
        stroke-width="6" 
        stroke-linecap="round" 
        opacity="0.4"/>
  
  <metadata>
    <rdf:RDF xmlns:rdf="http://www.w3.org/1999/02/22-rdf-syntax-ns#">
      <rdf:Description>
        <dc:title xmlns:dc="http://purl.org/dc/elements/1.1/">BEAUTY (E0FB)</dc:title>
        <dc:description xmlns:dc="http://purl.org/dc/elements/1.1/">High-pattern resonance. Flowing bloom showing aesthetic pause at elegance.</dc:description>
        <dc:date xmlns:dc="http://purl.org/dc/elements/1.1/">2025-11-27</dc:date>
      </rdf:Description>
    </rdf:RDF>
  </metadata>
</svg>
