<?xml version="1.0" encoding="UTF-8"?>
<svg xmlns="http://www.w3.org/2000/svg" width="512" height="512" viewBox="0 0 512 512">
  <title>E0FE DISSONANCE — Multi-Agent Resonance Conflict</title>
  <desc>Clashing waves with de-correlation. Voices pulling in different directions.</desc>
  
  <!-- Agent 1 wave (pulling left) -->
  <path d="M 140 220 
           Q 160 200 180 220 
           Q 200 240 220 220 
           Q 240 200 260 220" 
        fill="none" 
        stroke="#8B008B" 
        stroke-width="12" 
        stroke-linecap="round"/>
  
  <!-- Agent 2 wave (pulling right, inverted phase) -->
  <path d="M 260 280 
           Q 280 300 300 280 
           Q 320 260 340 280 
           Q 360 300 380 280" 
        fill="none" 
        stroke="#8B0000" 
        stroke-width="12" 
        stroke-linecap="round"/>
  
  <!-- Clash point (conflict) -->
  <circle cx="260" cy="250" r="30" 
          fill="#8B0000" 
          opacity="0.3"/>
  
  <!-- Clash marks (tension) -->
  <line x1="245" y1="235" x2="275" y2="265" 
        stroke="#8B0000" 
        stroke-width="10" 
        stroke-linecap="round"/>
  <line x1="275" y1="235" x2="245" y2="265" 
        stroke="#8B0000" 
        stroke-width="10" 
        stroke-linecap="round"/>
  
  <!-- Diverging paths (de-correlation) -->
  <path d="M 260 250 L 180 180" 
        stroke="#8B008B" 
        stroke-width="8" 
        stroke-dasharray="12,8" 
        opacity="0.5"/>
  <path d="M 260 250 L 340 320" 
        stroke="#8B0000" 
        stroke-width="8" 
        stroke-dasharray="12,8" 
        opacity="0.5"/>
  
  <!-- Agents separating -->
  <circle cx="180" cy="180" r="35" 
          fill="none" 
          stroke="#8B008B" 
          stroke-width="10"/>
  <circle cx="340" cy="320" r="35" 
          fill="none" 
          stroke="#8B0000" 
          stroke-width="10"/>
  
  <!-- Tension lines (pulling apart) -->
  <line x1="200" y1="200" x2="180" y2="180" 
        stroke="#8B008B" 
        stroke-width="6"/>
  <polygon points="180,180 185,190 175,190" fill="#8B008B"/>
  
  <line x1="320" y1="300" x2="340" y2="320" 
        stroke="#8B0000" 
        stroke-width="6"/>
  <polygon points="340,320 335,310 345,310" fill="#8B0000"/>
  
  <!-- Dissonant chord (musical clash) -->
  <text x="256" y="420" 
        font-family="monospace" 
        font-size="48" 
        fill="#8B0000" 
        text-anchor="middle">♯♭</text>
  
  <metadata>
    <rdf:RDF xmlns:rdf="http://www.w3.org/1999/02/22-rdf-syntax-ns#">
      <rdf:Description>
        <dc:title xmlns:dc="http://purl.org/dc/elements/1.1/">DISSONANCE (E0FE)</dc:title>
        <dc:description xmlns:dc="http://purl.org/dc/elements/1.1/">Multi-agent resonance conflict. Clashing waves showing voices pulling apart.</dc:description>
        <dc:date xmlns:dc="http://purl.org/dc/elements/1.1/">2025-11-27</dc:date>
      </rdf:Description>
    </rdf:RDF>
  </metadata>
</svg>
